<svg xmlns="http://www.w3.org/2000/svg" width="512" height="512" viewBox="0 0 512 512" role="img" aria-label="BI">
  <defs>
    <linearGradient id="bg" x1="0" y1="0" x2="1" y2="1">
      <stop offset="0%" stop-color="#0f766e"/>
      <stop offset="100%" stop-color="#0369a1"/>
    </linearGradient>
  </defs>
  <rect x="0" y="0" width="512" height="512" rx="96" fill="url(#bg)"/>
  <g fill="#ffffff">
    <rect x="112" y="296" width="56" height="104" rx="12"/>
    <rect x="204" y="232" width="56" height="168" rx="12"/>
    <rect x="296" y="160" width="56" height="240" rx="12"/>
    <path d="M120 168c0-6.6 5.4-12 12-12h12.4l53.2-53.2a12 12 0 0 1 17 0l42 42 84.8-84.8H336c-6.6 0-12-5.4-12-12s5.4-12 12-12h48c6.6 0 12 5.4 12 12v48c0 6.6-5.4 12-12 12s-12-5.4-12-12v-19.2l-93.3 93.3a12 12 0 0 1-17 0l-42-42-44.7 44.7H180c6.6 0 12 5.4 12 12s-5.4 12-12 12h-48c-6.6 0-12-5.4-12-12v-48z"/>
  </g>
</svg>
